<?xml version="1.0" encoding="utf-8"?>
<!-- Svg Vector Icons : http://www.onlinewebfonts.com/icon -->
<!DOCTYPE svg PUBLIC "-//W3C//DTD SVG 1.1//EN" "http://www.w3.org/Graphics/SVG/1.1/DTD/svg11.dtd">
<svg version="1.1" xmlns="http://www.w3.org/2000/svg" xmlns:xlink="http://www.w3.org/1999/xlink" x="0px" y="0px" viewBox="0 0 1000 1000" enable-background="new 0 0 1000 1000" xml:space="preserve">
<metadata> Svg Vector Icons : http://www.onlinewebfonts.com/icon </metadata>
<g><path d="M495.6,7.3C223.5,7.3,10,200.3,10,438.4c0,136.1,68.7,257.2,191.8,336.3v218l208.7-131c29.9,4.9,57.1,7.8,88.5,7.8c272.1,0,490.9-193,490.9-431.1C990,200.3,767.6,7.3,495.6,7.3z M649.6,607.3H341.6c-17,0-30.8-13.8-30.8-30.8c0-17,13.8-30.8,30.8-30.8h307.9c17,0,30.8,13.8,30.8,30.8C680.4,593.5,666.6,607.3,649.6,607.3z M711.1,422.5H280c-17,0-30.8-13.8-30.8-30.8s13.8-30.8,30.8-30.8h431.1c17,0,30.8,13.8,30.8,30.8S728.1,422.5,711.1,422.5z"/></g>
</svg>